<svg width="40" height="40" viewBox="0 0 40 40" fill="none" xmlns="http://www.w3.org/2000/svg">
<path d="M35.2285 3.65439L20.2908 0.0344797C20.2849 0.0330317 20.2788 0.0325792 20.2729 0.0312217C20.2383 0.0233484 20.203 0.0171041 20.1671 0.0122172C20.1555 0.0106787 20.1439 0.00895928 20.1323 0.00769231C20.0897 0.00316742 20.0466 0.000180996 20.0026 0L19.9999 0C19.9548 0 19.9106 0.00316742 19.867 0.00787331C19.8565 0.00904978 19.846 0.0105882 19.8355 0.0119457C19.7975 0.0170136 19.7603 0.0236199 19.7237 0.0320362C19.7192 0.0331222 19.7144 0.0333937 19.7098 0.0345702L19.6861 0.0402715L19.6834 0.040905L4.7714 3.65439C4.31487 3.76507 4 4.12045 4 4.52489V39.095C4 39.3788 4.15621 39.6462 4.42191 39.8171C4.68762 39.9883 5.03201 40.0431 5.3524 39.9655L20.0004 36.4159L34.6476 39.9655C34.7432 39.9886 34.8409 39.9999 34.938 39.9999C35.1665 39.9999 35.3917 39.9371 35.5781 39.8171C35.8438 39.6461 36 39.3788 36 39.095V4.52489C36 4.12045 35.685 3.76507 35.2285 3.65439ZM6.12391 5.20842L18.938 2.10326V34.7917L6.12391 37.8969V5.20842ZM33.8761 37.8969L21.0619 34.7915V2.10308L33.8761 5.20842V37.8969Z" fill="#DEF0F2"/>
<path d="M23.3726 7.32982L28.8624 8.89091C28.9452 8.91444 29.0285 8.92566 29.1104 8.92566C29.5046 8.92566 29.8672 8.66602 29.9804 8.26801C30.1171 7.7872 29.8382 7.28675 29.3575 7.15L23.8677 5.58892C23.3869 5.45227 22.8865 5.73118 22.7497 6.21181C22.613 6.69254 22.8919 7.19308 23.3726 7.32982Z" fill="#DEF0F2"/>
<path d="M23.3726 11.8548L28.8624 13.4159C28.9452 13.4394 29.0285 13.4507 29.1104 13.4507C29.5046 13.4507 29.8672 13.191 29.9804 12.793C30.1171 12.3122 29.8382 11.8117 29.3575 11.675L23.8677 10.1139C23.3869 9.97699 22.8865 10.2562 22.7497 10.7368C22.613 11.2175 22.8919 11.7181 23.3726 11.8548Z" fill="#DEF0F2"/>
<path d="M23.3726 16.3797L28.8624 17.9408C28.9452 17.9643 29.0285 17.9755 29.1104 17.9755C29.5046 17.9755 29.8672 17.7159 29.9804 17.3179C30.1171 16.8371 29.8382 16.3366 29.3575 16.1999L23.8677 14.6388C23.3869 14.502 22.8865 14.781 22.7497 15.2617C22.613 15.7424 22.8919 16.2429 23.3726 16.3797Z" fill="#DEF0F2"/>
<path d="M24 20.5L28.5 21.5V33L24 31.5V20.5Z" fill="#FFDE29"/>
<path d="M23.3726 32.8501L28.8623 34.4112C28.9438 34.4343 29.027 34.4457 29.1098 34.4457C29.3045 34.4457 29.4964 34.3828 29.6553 34.2628C29.8817 34.0917 30.0148 33.8244 30.0148 33.5407V21.595C30.0148 21.1905 29.7464 20.8352 29.3573 20.7245L23.8676 19.1634C23.5946 19.0858 23.3011 19.1407 23.0746 19.3117C22.8482 19.4828 22.7151 19.7501 22.7151 20.0338V31.9795C22.7151 32.384 22.9835 32.7394 23.3726 32.8501ZM24.525 21.2321L28.2049 22.2785V32.3425L24.525 31.2961V21.2321Z" fill="#DEF0F2"/>
<path d="M10.8895 8.92579C10.9714 8.92579 11.0548 8.91457 11.1375 8.89104L16.6279 7.32986C17.1086 7.19312 17.3876 6.69258 17.2508 6.21185C17.1142 5.73113 16.6134 5.45221 16.1328 5.58896L10.6424 7.15013C10.1617 7.28687 9.88276 7.78742 10.0195 8.26814C10.1327 8.66615 10.4952 8.92579 10.8895 8.92579Z" fill="#DEF0F2"/>
<path d="M16.1329 10.1138L10.6425 11.675C10.1618 11.8117 9.88288 12.3123 10.0196 12.793C10.1327 13.191 10.4954 13.4507 10.8897 13.4507C10.9716 13.4507 11.0549 13.4394 11.1376 13.4159L16.628 11.8547C17.1088 11.718 17.3877 11.2174 17.2509 10.7367C17.1142 10.2561 16.6136 9.97717 16.1329 10.1138Z" fill="#DEF0F2"/>
</svg>
