<svg width="41" height="41" viewBox="0 0 41 41" fill="none" xmlns="http://www.w3.org/2000/svg">
<g clip-path="url(#clip0_1394_440)">
<path d="M16.2292 13.6667H2.5625C1.14971 13.6667 0 12.517 0 11.1042V2.5625C0 1.14971 1.14971 0 2.5625 0H16.2292C17.642 0 18.7917 1.14971 18.7917 2.5625V11.1042C18.7917 12.517 17.642 13.6667 16.2292 13.6667ZM2.5625 1.70833C2.09271 1.70833 1.70833 2.091 1.70833 2.5625V11.1042C1.70833 11.5757 2.09271 11.9583 2.5625 11.9583H16.2292C16.699 11.9583 17.0833 11.5757 17.0833 11.1042V2.5625C17.0833 2.091 16.699 1.70833 16.2292 1.70833H2.5625Z" fill="#DEF0F2"/>
<rect x="1" y="18" width="17" height="22" rx="2" fill="#FFDE29"/>
<path d="M16.2292 41.0002H2.5625C1.14971 41.0002 0 39.8505 0 38.4377V19.646C0 18.2332 1.14971 17.0835 2.5625 17.0835H16.2292C17.642 17.0835 18.7917 18.2332 18.7917 19.646V38.4377C18.7917 39.8505 17.642 41.0002 16.2292 41.0002ZM2.5625 18.7918C2.09271 18.7918 1.70833 19.1745 1.70833 19.646V38.4377C1.70833 38.9092 2.09271 39.2918 2.5625 39.2918H16.2292C16.699 39.2918 17.0833 38.9092 17.0833 38.4377V19.646C17.0833 19.1745 16.699 18.7918 16.2292 18.7918H2.5625Z" fill="#DEF0F2"/>
<path d="M38.4375 41.0002H24.7709C23.3581 41.0002 22.2084 39.8505 22.2084 38.4377V29.896C22.2084 28.4832 23.3581 27.3335 24.7709 27.3335H38.4375C39.8503 27.3335 41 28.4832 41 29.896V38.4377C41 39.8505 39.8503 41.0002 38.4375 41.0002ZM24.7709 29.0418C24.3011 29.0418 23.9167 29.4245 23.9167 29.896V38.4377C23.9167 38.9092 24.3011 39.2918 24.7709 39.2918H38.4375C38.9073 39.2918 39.2917 38.9092 39.2917 38.4377V29.896C39.2917 29.4245 38.9073 29.0418 38.4375 29.0418H24.7709Z" fill="#DEF0F2"/>
<path d="M38.2292 23.9167H24.5625C23.1497 23.9167 22 22.767 22 21.3542V2.5625C22 1.14971 23.1497 0 24.5625 0H38.2292C39.6419 0 40.7917 1.14971 40.7917 2.5625V21.3542C40.7917 22.767 39.6419 23.9167 38.2292 23.9167ZM24.5625 1.70833C24.0927 1.70833 23.7083 2.091 23.7083 2.5625V21.3542C23.7083 21.8257 24.0927 22.2083 24.5625 22.2083H38.2292C38.6989 22.2083 39.0833 21.8257 39.0833 21.3542V2.5625C39.0833 2.091 38.6989 1.70833 38.2292 1.70833H24.5625Z" fill="#DEF0F2"/>
</g>
<defs>
<clipPath id="clip0_1394_440">
<rect width="41" height="41" fill="white"/>
</clipPath>
</defs>
</svg>
